<svg width="60" height="74" viewBox="0 0 60 74" fill="none" xmlns="http://www.w3.org/2000/svg">
<g clip-path="url(#clip0_16_1474)">
<path d="M35.1497 0.799907C37.4797 1.45991 39.8097 2.11991 42.1297 2.77991C42.5997 2.45991 42.9597 2.74991 43.3197 2.99991C43.8797 3.35991 44.4997 3.61991 45.0497 4.00991C48.6997 6.02991 51.5597 8.90991 54.0097 12.2399C55.7297 14.9499 57.1797 17.7899 58.0997 20.8799C58.5897 22.2499 58.7997 23.6799 59.1497 25.0799C59.3797 27.2999 59.3197 29.5199 59.3097 31.7399C59.3097 31.9999 59.2897 32.2699 59.2597 32.5399C59.0297 34.0399 58.5297 35.4799 58.2397 36.9699C58.1897 37.1999 58.1297 37.4299 58.0497 37.6599C57.8097 38.2999 57.6897 38.9899 57.4797 39.6399C57.1897 40.3599 56.8297 41.0499 56.4897 41.7499C56.1197 42.4199 55.7897 43.1099 55.4597 43.7999C55.0497 44.5799 54.5497 45.3199 54.0997 46.0699C53.9897 46.2599 53.8597 46.4399 53.7197 46.6099C52.7697 47.6499 52.0697 48.8999 51.0197 49.8499C50.6397 50.2199 50.2597 50.5799 49.8997 50.9599C49.4497 51.4099 49.1097 51.9499 48.7597 52.4799C47.7997 53.7199 46.5797 54.7099 45.5597 55.8999C45.1297 56.4099 44.7997 56.9999 44.3597 57.5099C43.1097 58.6699 42.2397 60.1499 41.0897 61.3899C40.4397 62.3999 39.4497 63.0899 38.6697 63.9799C38.4197 64.3299 38.1697 64.6799 37.9197 65.0299C37.3697 65.8399 36.5497 66.4099 35.9797 67.1999C35.6197 67.5799 35.2397 67.9299 34.9197 68.3499C34.4597 68.9099 33.9397 69.4199 33.4297 69.9399C32.8997 70.4499 32.3797 70.9699 31.8897 71.5199C31.2697 72.1299 30.9297 73.0099 30.1097 73.4299C29.7697 73.5399 29.4397 73.5299 29.0997 73.4099C26.9597 72.0399 25.7097 69.8199 24.0197 68.0099C23.6897 67.5899 23.3297 67.1999 22.8597 66.9299C21.8197 66.4299 21.2697 65.4999 20.7997 64.5199C20.1697 63.6699 19.4897 62.8699 18.8297 62.0399C18.3697 61.5899 17.7997 61.2699 17.3897 60.7599C16.7297 59.7399 15.8897 58.8899 14.9297 58.1399C14.4997 57.7799 14.1697 57.3399 13.8397 56.8999C13.3397 56.1799 12.8597 55.4299 12.2297 54.8099C9.81968 51.7499 6.93968 49.0699 4.96968 45.6699C1.62968 40.5199 -0.180318 34.9099 0.00968205 28.7199C-0.080318 26.2999 0.449682 23.9699 1.04968 21.6599C1.14968 21.1799 1.32968 20.7299 1.49968 20.2699C1.73968 19.5199 2.17968 18.8599 2.50968 18.1499C2.57968 17.9399 2.64968 17.7299 2.72968 17.5299C2.78968 17.3199 2.86968 17.1099 2.94968 16.8999C3.36968 15.3199 4.36968 14.0799 5.26968 12.7699C5.72968 11.8999 6.39968 11.1999 7.06968 10.4999C7.18968 10.3199 7.31968 10.1599 7.43968 9.97991C7.78968 9.63991 7.94968 8.95991 8.66968 9.25991C11.4597 7.11991 13.8997 4.58991 17.2597 3.11991C22.0797 1.01991 26.9997 0.0999073 32.1797 0.269907C32.4697 -0.0100927 32.7997 -0.0700927 33.1597 0.0799073C33.8497 0.239907 34.5797 0.299907 35.1497 0.799907Z" fill="#FEFEFE"/>
<path d="M11.699 29.2697C11.839 19.3397 20.349 11.1197 30.289 11.2897C40.289 11.4697 48.689 19.9997 48.459 29.7397C48.219 40.0097 39.929 48.2397 29.949 48.1297C19.759 48.0197 11.559 39.5397 11.699 29.2697Z" fill="#DE6106"/>
</g>
<defs>
<clipPath id="clip0_16_1474">
<rect width="59.33" height="73.52" fill="white"/>
</clipPath>
</defs>
</svg>
